{"glyphs":{"0":{"ha":833,"x_min":56,"x_max":777,"o":"m 777 472 q 688 138 777 279 q 420 -14 589 -14 q 122 180 222 -14 q 56 475 56 309 q 152 829 56 692 q 410 967 247 967 q 718 760 621 967 q 777 472 777 635 m 655 456 q 543 826 655 728 l 510 850 q 410 875 465 875 q 193 642 239 875 q 178 483 178 570 q 290 123 178 220 q 420 77 345 77 q 635 281 581 77 q 655 456 655 361 z "},"1":{"ha":833,"x_min":106,"x_max":772,"o":"m 772 0 l 106 0 l 106 88 l 391 88 l 391 808 q 127 605 267 678 l 127 724 q 419 952 316 821 l 506 952 l 506 88 l 772 88 l 772 0 z "},"2":{"ha":833,"x_min":80,"x_max":757,"o":"m 757 0 l 80 0 l 80 99 l 467 401 q 636 682 636 534 q 540 838 636 785 q 419 871 484 871 q 241 785 309 871 q 191 654 194 728 l 80 688 q 263 933 115 864 q 423 967 335 967 q 670 878 571 967 l 700 844 l 727 804 q 755 682 755 747 q 547 340 755 502 l 232 99 l 757 99 l 757 0 z "},"3":{"ha":833,"x_min":56,"x_max":779,"o":"m 779 267 q 624 31 779 107 q 418 -14 532 -14 q 121 106 227 -14 q 56 217 77 153 l 167 254 q 415 81 216 81 q 629 171 571 81 q 655 267 655 212 q 572 408 655 355 q 350 449 505 452 l 290 449 l 290 541 q 454 544 427 541 q 534 567 505 552 q 617 673 600 598 q 621 704 621 688 q 517 856 621 812 l 469 869 q 419 873 446 873 q 233 788 301 873 q 197 719 210 757 l 91 750 q 304 948 146 901 q 429 967 362 967 q 674 879 585 967 q 742 711 742 812 q 656 545 742 610 q 559 503 613 511 l 559 500 q 749 384 690 480 q 779 267 779 331 z "},"4":{"ha":833,"x_min":47,"x_max":788,"o":"m 788 222 l 632 222 l 632 0 l 517 0 l 517 222 l 47 222 l 47 301 l 483 952 l 632 952 l 632 313 l 788 313 l 788 222 m 517 313 l 517 860 l 171 313 l 517 313 z "},"5":{"ha":833,"x_min":66,"x_max":766,"o":"m 766 323 q 632 54 766 149 q 400 -14 533 -14 q 153 76 255 -14 q 66 212 90 133 l 170 245 q 340 88 217 117 q 403 80 370 80 q 618 189 553 80 q 651 324 651 245 q 560 511 651 446 q 427 551 503 551 q 224 450 304 551 q 203 420 213 437 l 109 441 l 140 952 l 704 952 l 694 850 l 227 850 l 206 543 q 435 646 311 646 q 686 537 589 646 q 766 323 766 448 z "},"6":{"ha":833,"x_min":62,"x_max":770,"o":"m 770 311 q 652 62 770 157 q 433 -14 560 -14 q 122 179 220 -14 q 62 452 62 296 q 186 854 62 715 q 450 967 286 967 q 730 815 644 967 q 755 755 745 788 l 648 727 q 450 869 597 867 q 183 579 229 869 q 172 430 172 511 l 175 430 q 335 595 218 544 q 460 623 395 623 q 697 515 605 623 q 770 311 770 429 m 659 305 q 576 480 659 414 q 442 528 517 528 q 256 444 331 528 q 199 294 199 378 q 292 126 199 191 q 430 81 354 81 q 616 170 547 81 q 659 305 659 228 z "},"7":{"ha":833,"x_min":96,"x_max":738,"o":"m 738 880 q 399 0 399 472 l 277 0 q 446 613 275 312 q 613 849 517 738 l 96 849 l 109 952 l 738 952 l 738 880 z "},"8":{"ha":833,"x_min":49,"x_max":785,"o":"m 785 255 q 618 22 785 94 q 422 -14 530 -14 q 157 58 267 -14 q 49 244 49 129 q 275 495 49 408 q 113 637 156 538 q 96 720 96 677 q 248 932 96 868 q 426 967 330 967 q 671 888 579 967 q 743 731 743 827 q 559 511 743 572 q 749 374 701 446 q 785 255 785 323 m 639 726 q 496 872 639 848 q 427 878 464 878 q 252 819 312 878 q 217 732 217 784 q 346 578 217 635 q 419 553 381 562 q 605 642 560 591 q 639 726 639 678 m 667 237 q 407 445 667 377 q 184 317 237 408 q 165 245 165 285 q 316 88 165 123 q 422 75 365 75 q 618 134 547 75 q 667 237 667 176 z "},"9":{"ha":833,"x_min":64,"x_max":769,"o":"m 769 499 q 655 111 769 252 q 385 -14 556 -14 q 122 106 208 -14 q 85 176 100 137 l 182 212 q 336 84 222 107 q 385 80 359 80 q 629 288 563 80 q 659 502 661 384 l 656 502 q 422 335 581 355 q 378 332 400 332 q 136 441 228 332 q 64 643 64 525 q 176 888 64 793 q 395 967 269 967 q 734 730 648 967 q 769 499 769 629 m 635 650 q 536 834 635 773 q 404 869 479 869 q 214 773 277 869 q 179 663 183 726 q 178 642 178 652 q 275 463 178 524 q 407 426 334 426 q 582 510 513 426 q 635 650 635 572 z "}," ":{"ha":416,"x_min":0,"x_max":0,"o":""},"&":{"ha":944,"x_min":57,"x_max":895,"o":"m 895 5 l 791 -4 q 673 45 726 -4 q 633 80 674 42 q 396 -14 525 -8 q 378 -14 388 -14 q 137 76 232 -14 q 57 267 57 155 q 180 494 57 403 q 304 555 236 534 q 213 765 213 684 q 308 937 213 882 q 425 967 359 967 q 613 880 552 967 q 647 765 647 831 q 495 545 647 632 l 448 521 l 647 220 q 776 521 746 340 l 879 500 q 703 148 834 293 q 796 98 749 98 q 895 104 812 98 l 895 5 m 557 760 q 490 865 557 833 q 427 879 461 879 q 328 823 359 879 l 316 793 q 313 769 313 783 q 399 589 313 711 q 495 647 483 639 q 557 760 557 696 m 579 152 l 350 483 q 195 363 229 431 q 176 275 176 326 q 293 94 176 138 q 393 76 338 76 q 579 152 503 76 z "},"F":{"ha":666,"x_min":114,"x_max":697,"o":"m 697 850 l 233 850 l 233 547 l 618 547 l 618 452 l 233 452 l 233 0 l 114 0 l 114 952 l 697 952 l 697 850 z "},"X":{"ha":749,"x_min":12,"x_max":749,"o":"m 749 0 l 614 0 l 373 406 l 123 0 l 12 0 l 317 494 l 46 952 l 179 952 l 389 600 l 601 952 l 711 952 l 445 517 l 749 0 z "},"一":{"ha":1389,"x_min":-4,"x_max":1360,"o":"m 1360 582 q 1360 439 1352 510 q 949 452 1156 452 l 119 452 q -4 439 57 452 q -4 582 4 510 q 119 570 57 570 l 949 570 q 1360 582 1156 570 z "},"分":{"ha":1389,"x_min":-11,"x_max":1379,"o":"m 521 499 q 308 490 406 505 q 311 566 312 532 q 79 369 203 448 q -9 479 43 431 q 308 752 180 585 q 471 1126 435 920 q 620 1084 543 1097 q 343 604 506 800 q 411 600 377 600 l 1055 600 q 787 1107 861 798 l 891 1128 q 961 930 910 1024 q 1084 765 1012 836 q 1379 547 1213 631 q 1267 439 1303 514 q 1074 582 1158 500 l 1074 -39 q 1047 -151 1074 -118 q 981 -197 1020 -184 q 910 -209 943 -209 l 764 -199 l 719 -199 q 708 -66 724 -133 q 816 -75 783 -75 q 869 -77 849 -75 q 902 -80 888 -79 q 929 -81 916 -81 q 956 -52 956 -80 l 956 499 l 675 499 q 578 149 665 316 q 368 -119 492 -19 q 142 -233 267 -199 q 90 -103 127 -164 q 283 -19 190 -80 q 433 134 377 42 q 521 499 515 266 z "},"在":{"ha":1389,"x_min":-12,"x_max":1360,"o":"m 1343 3 q 1343 -106 1336 -52 q 1080 -98 1211 -98 l 564 -98 q 471 -106 517 -98 q 471 3 476 -52 q 564 -7 517 -7 l 834 -7 l 834 361 l 636 361 q 543 351 589 361 q 543 460 548 406 q 636 452 589 452 l 834 452 l 834 605 q 823 723 834 665 q 960 723 891 716 q 948 605 948 665 l 948 452 l 1048 452 q 1268 460 1158 452 q 1268 351 1261 406 q 1048 361 1158 361 l 948 361 l 948 -7 l 1080 -7 q 1343 3 1211 -7 m 444 -212 q 307 -212 374 -205 q 317 15 317 -99 l 317 365 q 80 149 206 240 q -11 251 43 208 q 264 487 140 350 q 471 792 389 624 l 140 792 q 46 783 94 792 q 46 891 53 837 q 140 883 94 883 l 510 883 q 578 1127 556 1001 q 724 1090 650 1101 q 644 883 689 985 l 964 883 q 1359 891 1162 883 q 1359 783 1354 837 q 964 792 1162 792 l 602 792 q 431 509 525 639 l 431 15 q 444 -212 431 -99 z "},"天":{"ha":1389,"x_min":28,"x_max":1377,"o":"m 1324 650 q 1324 529 1317 590 q 945 540 1134 540 l 760 540 q 858 319 792 423 q 1009 137 924 216 q 1375 -99 1168 -11 q 1271 -213 1303 -137 q 929 31 1073 -123 q 701 392 785 186 q 468 3 639 171 q 80 -233 297 -164 q 28 -102 66 -164 q 423 127 260 -50 q 612 540 586 304 l 170 540 q 66 529 118 540 q 66 650 73 589 q 170 639 118 639 l 616 639 l 616 981 l 305 981 q 202 970 252 981 q 202 1090 208 1029 q 305 1080 252 1080 l 903 1080 q 1206 1090 1054 1080 q 1206 970 1199 1029 q 903 981 1054 981 l 734 981 l 734 639 l 945 639 q 1324 650 1134 639 z "},"小":{"ha":1389,"x_min":-22,"x_max":1374,"o":"m 1374 195 l 1253 151 l 1080 458 l 895 758 l 1012 810 l 1198 506 l 1374 195 m 355 806 q 507 762 429 776 q 290 325 388 477 q 90 75 191 172 q -22 165 42 129 q 355 806 300 446 m 579 -71 q 659 -33 659 -71 l 659 1028 q 647 1152 659 1090 q 791 1152 719 1145 q 779 1028 779 1090 l 779 -58 q 689 -191 772 -161 q 563 -202 631 -208 l 488 -201 q 480 -64 494 -132 q 579 -71 537 -71 z "},"已":{"ha":1389,"x_min":90,"x_max":1321,"o":"m 277 -102 q 152 -52 202 -102 q 102 79 102 -3 l 102 662 q 91 784 102 723 q 232 784 161 776 q 220 639 218 713 l 956 639 l 956 951 l 202 951 q 99 941 151 951 q 99 1061 106 1001 q 202 1051 151 1051 l 1074 1051 l 1074 479 l 956 479 l 956 538 l 220 538 l 220 79 q 237 29 220 50 q 278 8 254 8 l 1072 8 q 1137 32 1108 8 q 1173 92 1166 56 l 1206 290 q 1320 255 1257 256 l 1272 1 q 1233 -73 1265 -43 q 1158 -102 1200 -102 l 277 -102 z "},"时":{"ha":1389,"x_min":57,"x_max":1360,"o":"m 760 220 q 585 544 685 387 l 703 595 q 883 259 806 431 l 760 220 m 941 -71 q 1023 -33 1023 -71 l 1023 716 l 670 716 q 562 707 616 716 q 562 833 568 769 q 670 822 616 822 l 1023 822 l 1023 1028 q 1010 1152 1023 1090 q 1154 1152 1082 1145 q 1142 1028 1142 1090 l 1142 822 q 1359 833 1251 823 q 1359 707 1354 769 q 1142 716 1251 716 l 1142 -58 q 1051 -191 1134 -163 q 925 -202 991 -208 l 850 -201 q 842 -64 854 -132 q 941 -71 899 -71 m 191 23 l 57 23 l 57 981 l 536 981 l 536 23 l 403 23 l 403 85 l 191 85 l 191 23 m 403 583 l 403 880 l 191 880 l 191 583 l 403 583 m 403 186 l 403 483 l 191 483 l 191 186 l 403 186 z "},"秒":{"ha":1389,"x_min":-7,"x_max":1371,"o":"m 1152 454 q 1301 408 1223 423 q 920 -80 1173 104 q 718 -186 831 -144 q 481 -236 604 -228 q 457 -98 481 -164 q 771 -24 624 -94 q 1020 170 918 45 q 1152 454 1122 296 m 1256 505 q 1016 829 1147 673 l 1122 891 q 1370 556 1257 730 l 1256 505 m 666 861 q 806 873 736 860 q 759 543 806 690 q 586 251 712 395 q 490 323 544 296 q 667 817 680 476 q 666 861 666 853 m 1000 262 q 859 262 929 269 q 869 529 869 395 l 869 1028 q 859 1150 869 1089 q 1000 1150 929 1142 q 987 1028 987 1089 l 987 529 q 1000 262 987 395 m 583 1023 q 382 944 487 978 l 382 761 q 597 770 492 760 q 597 656 590 713 q 399 666 500 667 q 389 608 395 636 l 429 628 q 624 346 536 495 l 506 300 q 382 487 449 397 l 382 155 q 393 -212 382 -28 q 251 -212 323 -205 q 263 155 263 -28 l 263 300 q 79 96 189 184 q -5 180 43 146 q 218 463 149 278 q 260 666 255 562 q 45 656 144 671 q 45 770 50 713 q 263 761 145 757 l 263 913 q 79 888 189 895 q 61 1005 80 954 q 382 1067 240 997 q 511 1141 450 1097 q 583 1023 541 1077 z "},"经":{"ha":1389,"x_min":-5,"x_max":1356,"o":"m 1289 -14 q 1289 -127 1283 -71 q 1035 -118 1162 -118 l 544 -118 q 446 -127 495 -118 q 446 -14 452 -71 q 544 -23 495 -23 l 803 -23 l 803 311 l 651 311 q 552 301 601 311 q 552 416 559 358 q 651 407 601 407 l 987 407 q 1176 416 1081 407 q 1176 301 1169 359 q 918 311 1051 313 l 918 -23 l 1035 -23 q 1289 -14 1162 -23 m 563 985 q 563 1099 568 1042 q 661 1089 612 1089 l 1173 1089 q 952 787 1078 928 q 1355 522 1161 662 l 1271 442 q 873 703 1080 581 q 486 404 697 528 q 347 521 427 475 q 964 994 746 659 l 661 994 q 563 985 612 994 m 53 -95 q 15 47 41 -19 q 184 92 90 68 q 509 170 278 117 l 510 64 q 53 -95 232 -5 m 259 1143 q 382 1082 316 1107 l 349 1028 q 163 711 251 872 l 277 722 l 331 745 l 330 718 q 378 869 361 787 q 499 804 434 831 l 454 732 l 201 353 l 406 377 l 486 406 l 481 281 l 418 283 l 33 222 l 19 327 q 76 351 54 324 l 163 456 q 282 627 228 538 l 9 583 l -4 688 q 47 711 28 684 l 146 854 q 227 1002 194 926 q 259 1143 252 1067 z "},"起":{"ha":1389,"x_min":5,"x_max":1340,"o":"m 924 81 q 798 132 849 81 q 747 260 747 182 l 746 686 l 1081 686 l 1081 907 l 876 907 q 768 898 821 907 q 768 1024 774 960 q 876 1013 821 1013 l 1202 1013 l 1202 581 l 867 582 l 867 262 q 884 214 867 233 q 926 194 901 194 l 1152 194 q 1177 212 1172 194 q 1191 270 1188 240 l 1223 448 q 1339 410 1276 414 l 1280 122 q 1265 95 1276 109 q 1238 81 1255 81 l 924 81 m 5 -133 q 140 99 115 -60 q 129 119 134 109 l 142 126 q 146 209 146 165 q 136 441 152 334 q 271 441 203 433 q 259 324 259 382 l 259 209 q 255 122 259 164 q 330 34 285 73 l 330 557 l 146 557 q 57 549 100 557 q 57 652 62 601 q 146 644 100 644 l 331 644 l 331 821 l 179 821 q 90 812 133 821 q 90 917 95 864 q 179 907 133 907 l 331 907 q 320 1145 336 1035 q 454 1145 387 1138 q 444 907 438 1035 q 629 917 538 906 q 629 812 624 864 q 444 821 538 822 l 444 644 q 648 652 548 643 q 648 549 643 601 q 442 557 547 559 l 442 345 l 553 345 q 629 353 591 345 q 629 248 624 301 q 553 258 591 258 l 442 258 l 442 -38 q 741 -103 560 -91 q 1335 -119 987 -125 q 1283 -254 1289 -170 q 980 -241 1149 -247 q 734 -227 811 -235 q 224 -20 396 -197 q 106 -222 183 -137 q 5 -133 64 -170 z "}}}
